<svg width="226" height="57" viewBox="0 0 226 57" fill="none" xmlns="http://www.w3.org/2000/svg">
<path fill-rule="evenodd" clip-rule="evenodd" d="M63.69 7.86994C56.13 0.939944 47.86 1.86994 41.45 3.66994C27.45 7.48994 20.06 26.4199 29.22 41.2399C35.12 50.7999 54.44 58.3399 66.79 43.1899C68.7422 40.7484 70.2363 37.9737 71.2 34.9999C65.2 58.7499 39.2 62.9999 25.28 48.7099C7.45004 30.4999 20.85 1.49994 42.13 0.0999442C47.86 -0.290056 56.26 0.329944 63.69 7.86994Z" fill="#F7941D"/>
<path fill-rule="evenodd" clip-rule="evenodd" d="M128.22 15.1796L116.46 23.9296L121.89 18.0496C117.67 16.7023 113.22 16.226 108.81 16.6496C99.2802 17.8396 94.2302 23.8296 100.48 28.4596C104.48 31.4596 117.65 33.7996 126.05 29.0696V29.6496C119.43 34.2296 105.72 34.5596 97.7502 30.8096C85.6302 25.0996 94.7802 15.9996 109.25 15.5996C113.736 15.3138 118.235 15.9118 122.49 17.3596L125.92 13.0796L128.22 15.1796ZM66.5302 26.7596C66.5302 37.5396 58.1302 46.2896 47.7202 46.2896C44.0951 46.2628 40.555 45.1885 37.5264 43.1961C34.4978 41.2036 32.1099 38.378 30.6502 35.0596C36.9002 34.1596 43.6502 32.7396 49.3702 29.8596C54.8002 27.1196 59.6902 21.6396 63.9502 16.8596C65.6421 19.8736 66.5273 23.2733 66.5202 26.7296L66.5302 26.7596ZM71.5302 9.47961C80.0002 3.71961 87.7202 3.53961 87.7202 3.53961C87.7202 3.53961 77.4902 3.15961 68.7202 8.75961C67.5389 9.55433 66.4191 10.4368 65.3702 11.3996C63.4302 9.31488 61.0827 7.65074 58.4733 6.51029C55.8638 5.36984 53.048 4.77737 50.2002 4.76961C45.4949 4.82755 40.94 6.43549 37.2412 9.34434C33.5423 12.2532 30.9058 16.3006 29.7402 20.8596C30.8885 16.9614 33.2563 13.5341 36.4961 11.0809C39.7358 8.62773 43.6767 7.27789 47.7402 7.22961C50.534 7.23739 53.2897 7.87748 55.8009 9.1019C58.3121 10.3263 60.5135 12.1033 62.2402 14.2996C57.4802 18.8396 51.6602 24.5596 45.1502 27.7796C41.1502 29.7796 35.4402 31.0196 29.6302 32.1796C29.6162 32.1145 29.5961 32.0509 29.5702 31.9896C29.5822 32.0541 29.5989 32.1176 29.6202 32.1796C22.0002 33.6896 14.3102 34.9996 10.0002 37.4596C6.36219 39.6594 3.13693 42.4786 0.470215 45.7896C4.20608 42.2833 8.57332 39.5177 13.3402 37.6396C16.5002 36.4696 23.1202 36.1396 30.5102 35.0896C32.0204 39.095 34.7078 42.5494 38.2187 44.9983C41.7297 47.4472 45.8997 48.7759 50.1802 48.8096C61.8502 48.8096 71.4002 38.9596 71.4002 26.8096C71.42 22.0268 69.9098 17.363 67.0902 13.4996C68.4133 12.0068 69.8916 10.6592 71.5002 9.47961H71.5302ZM93.0002 44.0696H94.7702V48.1396L95.7002 46.8096L97.6102 44.0696H99.4302V50.5496H97.6602V46.4096L94.7802 50.5496H93.0002V44.0696ZM102.09 44.0696H103.94V46.4396H106.59V44.0696H108.44V50.5496H106.59V47.8296H103.94V50.5596H102.09V44.0796V44.0696ZM117.24 45.9996L115.41 46.3096C115.371 46.0124 115.221 45.741 114.99 45.5496C114.748 45.3702 114.452 45.2785 114.15 45.2896C113.945 45.2818 113.74 45.3169 113.549 45.3927C113.358 45.4685 113.185 45.5832 113.04 45.7296C112.727 46.16 112.581 46.6896 112.63 47.2196C112.575 47.7922 112.724 48.366 113.05 48.8396C113.192 48.9979 113.366 49.1231 113.561 49.2061C113.757 49.289 113.968 49.3278 114.18 49.3196C114.482 49.3075 114.77 49.1949 115 48.9996C115.273 48.7342 115.44 48.3789 115.47 47.9996L117.29 48.2896C117.148 48.982 116.765 49.6017 116.21 50.0396C115.571 50.4609 114.815 50.6675 114.05 50.6296C113.379 50.6076 112.728 50.3931 112.176 50.0115C111.623 49.6299 111.192 49.0975 110.934 48.4776C110.676 47.8578 110.601 47.1767 110.719 46.5157C110.837 45.8547 111.143 45.2416 111.6 44.7496C111.932 44.4436 112.321 44.2065 112.745 44.052C113.169 43.8975 113.619 43.8287 114.07 43.8496C114.773 43.8172 115.469 43.9947 116.07 44.3596C116.642 44.7465 117.051 45.3302 117.22 45.9996H117.24ZM118.64 44.0796H125V45.4696H122.76V50.5696H120.91V45.4696H118.67V44.0696L118.64 44.0796ZM126.86 44.0796H128.63V48.1596L131.48 44.0896H133.3V50.5696H131.52V46.4096L128.64 50.5496H126.86V44.0696V44.0796ZM135.19 44.0796H141.51V45.4696H139.27V50.5696H137.42V45.4696H135.18V44.0696L135.19 44.0796ZM142.9 44.0796H144.9L146.57 48.6896L148.2 44.0796H150.14L147.67 50.3196L147.23 51.4496C147.106 51.7558 146.948 52.0475 146.76 52.3196C146.466 52.717 146.035 52.9914 145.55 53.0896C145.223 53.1704 144.887 53.2074 144.55 53.1996C144.214 53.1955 143.879 53.1587 143.55 53.0896L143.38 51.7496C143.64 51.8015 143.905 51.8283 144.17 51.8296C144.344 51.844 144.52 51.8202 144.684 51.7597C144.848 51.6992 144.997 51.6036 145.12 51.4796C145.338 51.2141 145.501 50.9083 145.6 50.5796L142.93 44.0796H142.9ZM151.44 44.0796H157.79V45.4696H155.55V50.5696H153.7V45.4696H151.46V44.0696L151.44 44.0796ZM165 44.0796H166.85V46.7296C167.092 46.7299 167.325 46.6367 167.5 46.4696C167.702 46.1899 167.858 45.8792 167.96 45.5496C168.092 45.0684 168.364 44.637 168.74 44.3096C169.075 44.121 169.456 44.0277 169.84 44.0396C170.083 44.0245 170.327 44.0245 170.57 44.0396V45.1696C170.258 45.1423 169.943 45.1868 169.65 45.2996C169.432 45.5202 169.28 45.7972 169.21 46.0996C169.153 46.3435 169.04 46.5705 168.878 46.7618C168.716 46.953 168.511 47.1031 168.28 47.1996C168.612 47.3176 168.915 47.5042 169.17 47.7471C169.425 47.99 169.626 48.2839 169.76 48.6096C169.76 48.6096 169.81 48.6996 169.83 48.7396L170.83 50.5296H168.83L168 48.6796C167.889 48.4048 167.723 48.1562 167.51 47.9496C167.328 47.8262 167.11 47.7665 166.89 47.7796V50.5596H165V44.0596V44.0796ZM172.6 44.0796H174.33V45.0796C174.56 44.7428 174.869 44.4679 175.23 44.2796C175.622 44.0761 176.059 43.973 176.5 43.9796C176.888 43.9715 177.273 44.0457 177.63 44.1974C177.987 44.3491 178.307 44.5748 178.57 44.8596C178.868 45.195 179.096 45.5858 179.242 46.0097C179.388 46.4336 179.448 46.8822 179.42 47.3296C179.466 48.2486 179.158 49.1504 178.56 49.8496C178.298 50.1375 177.979 50.3666 177.622 50.5218C177.265 50.6769 176.879 50.7546 176.49 50.7496C176.129 50.7603 175.77 50.6885 175.44 50.5396C175.065 50.3597 174.726 50.1123 174.44 49.8096V52.9996H172.6V43.9996V44.0796ZM174.43 47.2196C174.384 47.7958 174.551 48.369 174.9 48.8296C175.039 48.9967 175.214 49.131 175.411 49.2226C175.608 49.3143 175.823 49.3611 176.04 49.3596C176.243 49.3645 176.444 49.3239 176.63 49.2409C176.815 49.1578 176.979 49.0344 177.11 48.8796C177.44 48.4262 177.593 47.8679 177.54 47.3096C177.587 46.7659 177.43 46.2242 177.1 45.7896C176.967 45.6315 176.8 45.5053 176.611 45.4205C176.422 45.3357 176.217 45.2944 176.01 45.2996C175.799 45.2954 175.589 45.336 175.394 45.4187C175.199 45.5014 175.024 45.6244 174.88 45.7796C174.56 46.1891 174.4 46.7009 174.43 47.2196ZM183.12 45.9996L181.44 45.7196C181.596 45.1515 181.951 44.6582 182.44 44.3296C183.07 43.9857 183.785 43.8295 184.5 43.8796C185.129 43.8485 185.757 43.9402 186.35 44.1496C186.698 44.2864 186.995 44.5274 187.2 44.8396C187.408 45.3249 187.494 45.8536 187.45 46.3796V48.3796C187.43 48.8017 187.461 49.2246 187.54 49.6396C187.611 49.9429 187.722 50.2354 187.87 50.5096H186C185.947 50.3896 185.887 50.2196 185.82 49.9996C185.804 49.9306 185.781 49.8636 185.75 49.7996C185.458 50.0711 185.119 50.2879 184.75 50.4396C184.381 50.5841 183.987 50.6555 183.59 50.6496C182.976 50.6857 182.371 50.4934 181.89 50.1096C181.66 49.9115 181.485 49.6582 181.379 49.3736C181.274 49.0889 181.243 48.7822 181.289 48.4822C181.335 48.1822 181.457 47.8989 181.642 47.6588C181.828 47.4187 182.072 47.2297 182.35 47.1096C182.823 46.9204 183.317 46.7862 183.82 46.7096C184.427 46.6183 185.026 46.4779 185.61 46.2896V46.1196C185.622 45.99 185.603 45.8596 185.557 45.7382C185.51 45.6168 185.436 45.5078 185.34 45.4196C185.038 45.2436 184.687 45.1699 184.34 45.2096C184.071 45.1875 183.802 45.2505 183.57 45.3896C183.358 45.5426 183.2 45.76 183.12 46.0096V45.9996ZM185.59 47.3996C185.35 47.4696 184.97 47.5596 184.46 47.6596C184.113 47.7134 183.777 47.8178 183.46 47.9696C183.351 48.0301 183.261 48.1185 183.197 48.2257C183.134 48.3329 183.101 48.4551 183.1 48.5796C183.1 48.6979 183.126 48.8146 183.177 48.9217C183.227 49.0289 183.3 49.1237 183.39 49.1996C183.595 49.3768 183.86 49.4697 184.13 49.4596C184.488 49.4668 184.839 49.3581 185.13 49.1496C185.337 49.0193 185.493 48.8214 185.57 48.5896C185.628 48.3136 185.652 48.0314 185.64 47.7496V47.4096L185.59 47.3996ZM196.17 45.9996L194.35 46.3096C194.311 46.0124 194.161 45.741 193.93 45.5496C193.684 45.3702 193.385 45.2786 193.08 45.2896C192.876 45.2801 192.672 45.3144 192.482 45.3903C192.293 45.4662 192.121 45.5819 191.98 45.7296C191.663 46.1586 191.514 46.6884 191.56 47.2196C191.505 47.7922 191.654 48.366 191.98 48.8396C192.122 48.9979 192.296 49.1231 192.492 49.2061C192.687 49.289 192.898 49.3278 193.11 49.3196C193.436 49.3256 193.753 49.2117 194 48.9996C194.271 48.7321 194.441 48.3786 194.48 47.9996L196.29 48.2896C196.15 48.9854 195.763 49.607 195.2 50.0396C194.562 50.4628 193.805 50.6697 193.04 50.6296C192.37 50.6058 191.721 50.3899 191.17 50.0076C190.618 49.6253 190.189 49.0928 189.932 48.4733C189.675 47.8538 189.601 47.1735 189.719 46.5133C189.838 45.8532 190.144 45.241 190.6 44.7496C190.932 44.4436 191.321 44.2065 191.745 44.052C192.169 43.8975 192.619 43.8287 193.07 43.8496C193.773 43.8172 194.469 43.9947 195.07 44.3596C195.616 44.7586 195.999 45.3409 196.15 45.9996H196.17ZM198 47.2196C198.001 46.6363 198.157 46.0636 198.45 45.5596C198.749 45.0307 199.198 44.6025 199.74 44.3296C200.315 44.0442 200.948 43.8969 201.59 43.8996C202.555 43.8761 203.49 44.2357 204.19 44.8996C204.515 45.2155 204.773 45.5933 204.949 46.0107C205.126 46.4281 205.216 46.8765 205.216 47.3296C205.216 47.7827 205.126 48.2311 204.949 48.6485C204.773 49.0659 204.515 49.4437 204.19 49.7596C203.849 50.0905 203.445 50.3495 203.002 50.5213C202.558 50.6931 202.085 50.7741 201.61 50.7596C200.978 50.7678 200.352 50.631 199.78 50.3596C199.221 50.12 198.755 49.7061 198.45 49.1796C198.132 48.5983 197.976 47.9419 198 47.2796V47.2196ZM199.9 47.3096C199.879 47.5765 199.911 47.8451 199.995 48.0993C200.079 48.3535 200.214 48.5883 200.39 48.7896C200.547 48.948 200.734 49.0738 200.94 49.1596C201.146 49.2454 201.367 49.2896 201.59 49.2896C201.813 49.2896 202.034 49.2454 202.24 49.1596C202.446 49.0738 202.633 48.948 202.79 48.7896C203.141 48.3754 203.317 47.8411 203.28 47.2996C203.3 47.0343 203.268 46.7676 203.183 46.5152C203.099 46.2628 202.966 46.0297 202.79 45.8296C202.472 45.5121 202.04 45.3338 201.59 45.3338C201.14 45.3338 200.709 45.5121 200.39 45.8296C200.214 46.0309 200.079 46.2657 199.995 46.5199C199.911 46.7741 199.879 47.0427 199.9 47.3096ZM206.33 44.0696H212.66V45.4496H210.4V50.5496H208.55V45.4496H206.31V44.0696H206.33ZM214.61 44.0696H216.46V46.7596H218.31C218.871 46.7445 219.431 46.7948 219.98 46.9096C220.372 46.9965 220.724 47.2111 220.98 47.5196C221.242 47.841 221.38 48.2453 221.37 48.6596C221.389 48.9345 221.335 49.2095 221.214 49.457C221.093 49.7045 220.909 49.9158 220.68 50.0696C220.041 50.4281 219.311 50.5915 218.58 50.5396H214.63V44.0596L214.61 44.0696ZM216.46 49.4696H218.18C218.525 49.4938 218.871 49.4247 219.18 49.2696C219.284 49.202 219.367 49.1078 219.421 48.997C219.476 48.8862 219.5 48.7627 219.49 48.6396C219.5 48.5043 219.468 48.3693 219.398 48.253C219.328 48.1367 219.224 48.0448 219.1 47.9896C218.644 47.8493 218.167 47.7917 217.69 47.8196H216.49V49.4696H216.46ZM222.41 44.0696H224.26V50.5496H222.41V44.0696ZM219.71 16.1496L204.89 23.6496V16.1496H201.01V32.6496H204.89L204.85 24.1796L219.7 32.6496H225.47L209.21 23.2896L223.42 16.1496H219.71ZM191.65 32.6496V15.4496L168.53 29.1296V16.1496H164.65V33.3896L187.77 19.6196V32.6496H191.65ZM155.71 16.1496H130.15V32.6496H134.02V17.6396H151.84V32.6496H155.71V16.1496Z" fill="currentColor"/>
</svg>
