<svg width="24" height="24" viewBox="0 0 24 24" fill="none" xmlns="http://www.w3.org/2000/svg">
<path d="M12 11C14.2091 11 16 9.20914 16 7C16 4.79086 14.2091 3 12 3C9.79086 3 8 4.79086 8 7C8 9.20914 9.79086 11 12 11Z" stroke="#671EA6" stroke-width="1.5" stroke-linecap="round" stroke-linejoin="round"/>
<path d="M19.5002 20C19.5721 19.3531 19.5002 18.3333 19.5002 18.3333C19.5002 17.4493 19.0788 16.6014 18.3286 15.9763C15.9597 14.0022 8.04074 14.0022 5.67178 15.9763C4.92163 16.6014 4.50021 17.4493 4.50021 18.3333C4.50021 18.3333 4.42833 19.3531 4.50021 20" stroke="#671EA6" stroke-width="1.5" stroke-linecap="round" stroke-linejoin="round"/>
</svg>
