<svg width="24" height="24" viewBox="0 0 24 24" fill="none" xmlns="http://www.w3.org/2000/svg">
<path d="M17.3334 19.2667C17.2667 19.2667 17.2001 19.2667 17.1334 19.2667C15.0001 19 12.8667 18.2667 11.0667 17.1333C9.40007 16.0667 7.9334 14.6 6.86673 12.9333C5.66673 11.1333 4.9334 9.00002 4.7334 6.86668C4.7334 6.33335 4.86673 5.80002 5.20007 5.40002C5.5334 5.00002 6.00006 4.73335 6.5334 4.66668C6.60006 4.66668 6.66673 4.66668 6.7334 4.66668H8.7334C9.7334 4.66668 10.6001 5.40002 10.7334 6.40002C10.8001 7.00002 10.9334 7.60002 11.1334 8.13335C11.4001 8.86668 11.2001 9.66668 10.6667 10.2667L10.2001 10.7333C11.0001 11.9333 12.0001 13 13.2667 13.8L13.7334 13.3333C14.2667 12.8 15.1334 12.6 15.8667 12.8667C16.4001 13.0667 17.0001 13.2 17.6001 13.2667C18.6001 13.4 19.3334 14.2667 19.3334 15.2667V17.2667C19.3334 17.8 19.1334 18.3333 18.7334 18.6667C18.3334 19 17.8667 19.2667 17.3334 19.2667ZM8.7334 6.00002H6.7334C6.5334 6.00002 6.3334 6.13335 6.20007 6.26668C6.1334 6.40002 6.06673 6.53335 6.06673 6.73335C6.26673 8.66668 6.9334 10.5333 8.00007 12.2C9.00007 13.7333 10.2667 15.0667 11.8001 16C13.4667 17.0667 15.3334 17.7333 17.2667 17.9333C17.5334 17.9333 17.6667 17.8667 17.8001 17.7333C17.9334 17.6 18.0001 17.4667 18.0001 17.2667V15.2667C18.0001 14.9333 17.7334 14.6667 17.4001 14.6C16.7334 14.5333 16.0667 14.3333 15.4001 14.0667C15.1334 14 14.8667 14 14.6667 14.2L13.8001 15.0667C13.6001 15.2667 13.2667 15.3333 13.0001 15.2C11.2001 14.2 9.7334 12.7333 8.7334 10.9333C8.66673 10.6667 8.7334 10.3333 8.9334 10.1333L9.80007 9.26668C9.9334 9.13335 10.0001 8.80002 9.9334 8.60002C9.66673 7.93335 9.5334 7.26668 9.40007 6.60002C9.40007 6.26668 9.06673 6.00002 8.7334 6.00002ZM16.6667 10.6667C16.3334 10.6667 16.0667 10.4667 16.0001 10.1333C15.8001 9.06668 14.9334 8.26668 13.8667 8.00002C13.5334 7.93335 13.2667 7.60002 13.3334 7.20002C13.4001 6.86668 13.7334 6.60002 14.1334 6.66668C15.7334 7.00002 17.0001 8.20002 17.2667 9.80002C17.3334 10.1333 17.1334 10.5333 16.7334 10.6C16.7334 10.6 16.7334 10.6667 16.6667 10.6667ZM19.3334 10.6C19.0001 10.6 18.7334 10.3333 18.6667 10C18.4001 7.53335 16.4667 5.60002 13.9334 5.26668C13.6001 5.20002 13.3334 4.86668 13.3334 4.53335C13.3334 4.20002 13.7334 3.93335 14.0667 3.93335C17.2001 4.26668 19.6001 6.66668 19.9334 9.80002C20.0001 10.1333 19.7334 10.4667 19.3334 10.5333C19.4001 10.6 19.3334 10.6 19.3334 10.6Z" fill="#671EA6"/>
</svg>
