<svg width="48" height="48" viewBox="0 0 48 48" fill="none" xmlns="http://www.w3.org/2000/svg">
<path id="Shape" fill-rule="evenodd" clip-rule="evenodd" d="M42.5738 0H5.42892C2.4348 0 0 2.59651 0 5.79433V42.2122C0 45.4062 2.4348 48 5.42892 48H42.5737C45.5678 48 48 45.4062 48 42.2122V5.79433C48.0002 2.59651 45.5679 0 42.5738 0ZM31.039 8.61731C33.9344 8.61731 36.2826 11.1225 36.2826 14.2111C36.2826 17.2997 33.9343 19.8049 31.039 19.8049C28.1427 19.8049 25.7953 17.2997 25.7953 14.2111C25.7953 11.1225 28.1427 8.61731 31.039 8.61731ZM40.8707 42.6465H23.9991H7.87913C6.43091 42.6465 5.78594 41.5288 6.43878 40.1498L15.4379 21.1353C16.0899 19.7565 17.3326 19.6334 18.2127 20.8602L27.2616 33.4753C28.1416 34.7022 29.6798 34.8066 30.6979 33.7074L32.9116 31.316C33.9288 30.2168 35.4277 30.3529 36.2579 31.618L41.9902 40.3529C42.8188 41.62 42.319 42.6465 40.8707 42.6465Z" fill="#242424" fill-opacity="0.2"/>
</svg>
