<svg width="154" height="154" viewBox="0 0 154 154" fill="none" xmlns="http://www.w3.org/2000/svg">
<rect width="154" height="154" rx="77" fill="url(#paint0_linear_45_577)"/>
<g opacity="0.5">
<path d="M77.0002 48.8125C69.924 48.8125 64.1877 54.5489 64.1877 61.625C64.1877 68.7012 69.924 74.4375 77.0002 74.4375C84.0763 74.4375 89.8127 68.7012 89.8127 61.625C89.8127 54.5489 84.0763 48.8125 77.0002 48.8125Z" fill="white"/>
<path d="M63.3335 81.2708C56.2573 81.2708 50.521 87.0072 50.521 94.0833V98.1433C50.521 100.717 52.3861 102.911 54.926 103.326C69.5453 105.713 84.455 105.713 99.0743 103.326C101.614 102.911 103.479 100.717 103.479 98.1433V94.0833C103.479 87.0072 97.743 81.2708 90.6668 81.2708H89.5022C88.8718 81.2708 88.2455 81.3705 87.6463 81.5662L84.6891 82.5318C79.6929 84.1632 74.3074 84.1632 69.3113 82.5318L66.3541 81.5662C65.7549 81.3705 65.1285 81.2708 64.4981 81.2708H63.3335Z" fill="white"/>
</g>
<defs>
<linearGradient id="paint0_linear_45_577" x1="77" y1="0" x2="77" y2="154" gradientUnits="userSpaceOnUse">
<stop stop-color="#9A75C2"/>
<stop offset="1" stop-color="#808BD9"/>
</linearGradient>
</defs>
</svg>
