<svg width="32" height="32" viewBox="0 0 32 32" fill="none" xmlns="http://www.w3.org/2000/svg">
<circle cx="16" cy="16" r="16" fill="#F4F3F5"/>
<path d="M13.2558 22.4261L21 14.6819L17.3217 11.0036L9.5775 18.7478C9.47089 18.8545 9.39515 18.9881 9.35833 19.1344L8.5 23.5036L12.8683 22.6453C13.015 22.6086 13.1492 22.5328 13.2558 22.4261V22.4261ZM23.5 12.1819C23.8125 11.8694 23.988 11.4455 23.988 11.0036C23.988 10.5617 23.8125 10.1378 23.5 9.82527L22.1783 8.5036C21.8658 8.19115 21.4419 8.01562 21 8.01562C20.5581 8.01562 20.1342 8.19115 19.8217 8.5036L18.5 9.82527L22.1783 13.5036L23.5 12.1819Z" fill="#36337A"/>
</svg>
