<svg width="24" height="24" viewBox="0 0 24 24" fill="none" xmlns="http://www.w3.org/2000/svg">
<rect width="24" height="24" fill="white"/>
<path d="M22.2252 1.77322C22.0002 1.54825 21.695 1.42188 21.3768 1.42188C21.0586 1.42188 20.7534 1.54825 20.5284 1.77322L1.776 20.528C1.66139 20.6387 1.56997 20.7711 1.50708 20.9175C1.44419 21.0639 1.41108 21.2214 1.4097 21.3807C1.40831 21.5401 1.43868 21.6981 1.49901 21.8456C1.55935 21.993 1.64845 22.127 1.76113 22.2397C1.8738 22.3524 2.00778 22.4415 2.15526 22.5018C2.30273 22.5621 2.46075 22.5925 2.62008 22.5911C2.77942 22.5897 2.93688 22.5566 3.08329 22.4937C3.22969 22.4308 3.3621 22.3394 3.4728 22.2248L22.224 3.47002C22.449 3.24498 22.5753 2.93982 22.5753 2.62162C22.5753 2.30342 22.449 1.99825 22.224 1.77322H22.2252ZM3.7296 16.1972L6.8016 13.1252C6.71401 12.7563 6.66852 12.3787 6.666 11.9996C6.666 9.14482 9.054 6.82882 12 6.82882C12.3432 6.82882 12.6768 6.86722 13.002 6.92722L14.4456 5.48482C13.6372 5.3509 12.8194 5.28268 12 5.28082C4.128 5.27962 0 11.0768 0 11.9996C0 12.5072 1.2684 14.5076 3.7296 16.196V16.1972ZM20.274 7.80562L17.1996 10.8776C17.2824 11.24 17.3328 11.6132 17.3328 11.9996C17.3328 14.8544 14.946 17.168 12 17.168C11.6592 17.168 11.328 17.1296 11.0052 17.0708L9.5604 18.5144C10.3308 18.6392 11.1396 18.7184 12 18.7184C19.872 18.7184 24 12.9188 24 11.9996C24 11.4908 22.7328 9.49162 20.274 7.80562Z" fill="#D8D8D8"/>
</svg>
