<svg width="24" height="24" viewBox="0 0 24 24" fill="none" xmlns="http://www.w3.org/2000/svg">
<path d="M16 3.13C16.8604 3.35031 17.623 3.85071 18.1676 4.55232C18.7122 5.25392 19.0078 6.11683 19.0078 7.005C19.0078 7.89318 18.7122 8.75608 18.1676 9.45769C17.623 10.1593 16.8604 10.6597 16 10.88" stroke="#ACACAC" stroke-width="1.5" stroke-linecap="round" stroke-linejoin="round"/>
<path d="M9 11C11.2091 11 13 9.20914 13 7C13 4.79086 11.2091 3 9 3C6.79086 3 5 4.79086 5 7C5 9.20914 6.79086 11 9 11Z" stroke="#ACACAC" stroke-width="1.5" stroke-linecap="round" stroke-linejoin="round"/>
<path d="M13.0002 21.1422C14.3882 20.8923 15.4886 20.5116 16.0002 20C16.0721 19.3531 16.0002 18.3333 16.0002 18.3333C16.0002 17.4493 15.5788 16.6014 14.8286 15.9763C12.4597 14.0022 4.54074 14.0022 2.17178 15.9763C1.42163 16.6014 1.00021 17.4493 1.00021 18.3333C1.00021 18.3333 0.92833 19.3531 1.00021 20C1.51177 20.5116 2.61219 20.8923 4.00021 21.1422" stroke="#ACACAC" stroke-width="1.5" stroke-linecap="round" stroke-linejoin="round"/>
<path d="M20 21.1422C21.388 20.8923 22.4884 20.5116 23 20C23.0719 19.3531 23 18.3333 23 18.3333C23 17.4493 22.5786 16.6014 21.8285 15.9763C21.3874 15.6088 20.7541 15.3097 20 15.079" stroke="#ACACAC" stroke-width="1.5" stroke-linecap="round" stroke-linejoin="round"/>
</svg>
