<svg width="11" height="18" viewBox="0 0 11 18" fill="none" xmlns="http://www.w3.org/2000/svg">
<path d="M9.22145 0.721487L9.22154 0.721395C9.51415 0.426151 9.98654 0.426277 10.2788 0.72131L10.279 0.721481C10.5737 1.01872 10.5737 1.50264 10.279 1.79981L10.6339 2.15173L10.279 1.79982L3.48842 8.64807L3.13933 9.00013L3.48842 9.35218L10.2787 16.2001C10.2787 16.2001 10.2787 16.2002 10.2788 16.2002C10.5735 16.4977 10.5734 16.9815 10.2788 17.2787L10.2787 17.2788C9.98637 17.5737 9.51388 17.5738 9.22126 17.2787L9.22126 17.2787L1.54707 9.53919C1.40003 9.39082 1.32609 9.19683 1.32609 9.00017C1.32609 8.80344 1.4002 8.60921 1.54721 8.46093L9.22145 0.721487Z" fill="#36337A" stroke="#36337A"/>
</svg>
